# xmcd
#
# Track frame offsets:
#  150
#  16013
#  31892
#  49044
#  64116
#  77389
#  89682
#  101232
#  114926
#  130301
#  145380
#
# Disc length: 2144 seconds
#
# Revision: 0
# Processed by: cddbd v1.5.2PL0 Copyright (c) Steve Scherf et al.
# Submitted via: AltoMP3_Maker 3.0
#
DISCID=8a085e0b
DTITLE=Lucky Tubb and The Modern Day Troubadors - Damn the Luck
DYEAR=1900
DGENRE=
TTITLE0=Used Up Love
TTITLE1=Huntsville
TTITLE2=Bakersfield
TTITLE3=Takin' It Back
TTITLE4=The World Is a Monster
TTITLE5=Sweet Mental Revenge
TTITLE6=Keeping Time
TTITLE7=It's Your Wagon
TTITLE8=Honky Tonkin'
TTITLE9=Annie Don't Work No More
TTITLE10=Damn the Luck
EXTD=
EXTT0=
EXTT1=
EXTT2=
EXTT3=
EXTT4=
EXTT5=
EXTT6=
EXTT7=
EXTT8=
EXTT9=
EXTT10=
PLAYORDER=
